<svg xmlns="http://www.w3.org/2000/svg" viewBox="0 0 2228.833 2073.333">
  <path fill="#fff" d="M1554.637 777.5h575.713c54.391 0 98.483 44.092 98.483 98.483v524.398c0 199.901-162.051 361.952-361.952 361.952h-1.711c-199.901.028-361.975-162-362.004-361.901v-.052-571.409c.001-28.427 23.045-51.471 51.471-51.471z"/>
  <circle fill="#fff" cx="1943.75" cy="440.583" r="233.25"/>
  <circle fill="#fff" cx="1218.083" cy="336.917" r="336.917"/>
  <path fill="#fff" d="M1667.323 777.5H717.01c-53.743 1.33-96.257 45.931-95.01 99.676v598.105c-7.505 322.519 247.657 590.16 570.167 598.053 322.51-7.893 577.672-275.534 570.167-598.053V877.176c1.245-53.745-41.268-98.346-95.011-99.676z"/>
</svg>
