<svg xmlns="http://www.w3.org/2000/svg" viewBox="0 0 2228.833 2073.333">
  <path fill="#5059C9" d="M1554.637,777.5h575.713c54.391,0,98.483,44.092,98.483,98.483c0,0,0,0,0,0v524.398 c0,199.901-162.051,361.952-361.952,361.952h0h-1.711c-199.901,0.028-361.975-162-362.004-361.901c0-0.017,0-0.034,0-0.052V828.971 C1503.167,800.544,1526.211,777.5,1554.637,777.5L1554.637,777.5z"/>
  <circle fill="#5059C9" cx="1943.75" cy="440.583" r="233.25"/>
  <circle fill="#7B83EB" cx="1218.083" cy="336.917" r="336.917"/>
  <path fill="#7B83EB" d="M1667.323,777.5H717.01c-53.743,1.33-96.257,45.931-95.01,99.676v598.105 c-7.505,322.519,247.657,590.16,570.167,598.053c322.51-7.893,577.671-275.534,570.167-598.053V877.176 C1763.579,823.431,1721.066,778.83,1667.323,777.5z"/>
</svg>
